<?xml version="1.0" encoding="UTF-8" standalone="no"?>
<!-- Created with Inkscape (http://www.inkscape.org/) -->

<svg
   width="18mm"
   height="21.66246mm"
   viewBox="0 0 18 21.66246"
   version="1.1"
   id="svg24962"
   xmlns="http://www.w3.org/2000/svg"
   xmlns:svg="http://www.w3.org/2000/svg">
  <defs
     id="defs24959" />
  <g
     id="layer1"
     transform="translate(-25.285118,-54.84749)">
    <g
       aria-label="⛨"
       transform="matrix(0.70977918,0,0,0.70977918,-122.01275,-99.885982)"
       id="text2298"
       style="font-size:40px;line-height:1.25;white-space:pre;shape-inside:url(#rect2300);stroke-width:0.372769">
      <path
         d="m 220.24633,248.52227 q -0.64,0 -2.12,-0.72 -1.48,-0.76 -3.32,-2 -1.84,-1.28 -3.6,-2.8 -2.68,-2.32 -3.68,-3.96 v -21.04 h 25.36 v 21.04 q -0.68,1.08 -2.16,2.56 -1.48,1.48 -3.32,2.92 -1.8,1.4 -3.6,2.44 -2.68,1.56 -3.56,1.56 z m -0.04,-2.6 q 0.48,0 1.48,-0.56 1,-0.56 2.24,-1.48 1.28,-0.92 2.56,-1.96 1.28,-1.08 2.28,-2.08 1.04,-1.04 1.52,-1.8 v -17.76 h -20.16 v 17.76 q 0.48,0.76 1.52,1.8 1.04,1.04 2.32,2.12 1.28,1.04 2.52,1.96 1.28,0.88 2.28,1.44 1,0.56 1.44,0.56 z m -2.16,-6.56 v -6.12 h -6.12 v -4.32 h 6.12 v -6.12 h 4.32 v 6.12 h 6.12 v 4.32 h -6.12 v 6.12 z"
         id="path5122"
         style="stroke-width:0.372769" />
    </g>
  </g>
</svg>
