<?xml version="1.0" encoding="UTF-8" standalone="no"?>
<!-- Created with Inkscape (http://www.inkscape.org/) -->

<svg
   width="18mm"
   height="21.66246mm"
   viewBox="0 0 18 21.66246"
   version="1.1"
   id="svg24962"
   xmlns="http://www.w3.org/2000/svg"
   xmlns:svg="http://www.w3.org/2000/svg">
  <defs
     id="defs24959" />
  <g
     id="layer1"
     transform="translate(-25.285118,-54.84749)">
    <path
       d="m 32.752191,70.217781 v -4.343849 h -4.343848 v -3.066246 h 4.343848 v -4.343848 h 3.066247 v 4.343848 h 4.34385 v 3.066246 h -4.34385 v 4.343849 z"
       id="path5382"
       style="font-size:40px;white-space:pre;stroke-width:0.264584" />
    <path
       style="color:#000000;font-size:40px;white-space:pre;fill:#000000;stroke-width:0.264584;stroke-linejoin:round;-inkscape-stroke:none"
       d="m 34.285808,54.84011 c -5.018569,0 -9.001161,4.551778 -9.001161,10.02979 0,5.478019 3.982592,10.031176 9.001161,10.031176 5.01858,0 8.99978,-4.553157 8.99978,-10.031176 0,-5.478012 -3.9812,-10.02979 -8.99978,-10.02979 z m 0,1.699594 c 3.98367,0 7.3002,3.667813 7.3002,8.330196 0,4.66239 -3.31653,8.330206 -7.3002,8.330206 -3.983661,0 -7.300189,-3.667816 -7.300189,-8.330206 0,-4.662383 3.316528,-8.330196 7.300189,-8.330196 z"
       id="path23325" />
    <path
       style="color:#000000;font-size:40px;white-space:pre;fill:#000000;stroke-width:0.264584;-inkscape-stroke:none"
       d="m 35.318598,70.810146 c -0.3675,0.0275 -0.75189,0.13322 -1.12428,0.3327 -0.7448,0.39898 -1.462086,1.11716 -2.21113,2.26242 l 1.42372,0.93021 c 0.65078,-0.99504 1.20969,-1.49028 1.59007,-1.69405 0.38038,-0.20375 0.56074,-0.1725 0.74721,-0.10258 0.55947,0.20979 0.96597,1.00058 1.81187,2.01011 0.84591,1.00954 2.26505,2.0082 4.65239,1.96715 l -0.0291,-1.69959 c -1.96076,0.0337 -2.65794,-0.56962 -3.32016,-1.35995 -0.66222,-0.79032 -1.1558,-1.99804 -2.51888,-2.50918 -0.30339,-0.11377 -0.65419,-0.16478 -1.0217,-0.13725 z"
       id="path25201" />
  </g>
</svg>
